<svg width="160" height="29" viewBox="0 0 160 29" fill="none" xmlns="http://www.w3.org/2000/svg">
<path d="M21.7012 1.15747V1.00747H21.5512H1H0.85V1.15747V5.24674V5.39674H1H21.5512H21.7012V5.24674V1.15747Z" fill="#007CC1" stroke="#007CC1" stroke-width="0.3"/>
<path d="M17.4022 12.3776V12.2276H17.2522H1H0.85V12.3776V16.4668V16.6168H1H17.2522H17.4022V16.4668V12.3776Z" fill="#007CC1" stroke="#007CC1" stroke-width="0.3"/>
<path d="M21.7012 23.9107V23.7607H21.5512H1H0.85V23.9107V28V28.15H1H21.5512H21.7012V28V23.9107Z" fill="#007CC1" stroke="#007CC1" stroke-width="0.3"/>
<path d="M135.572 1.15747V1.00747H135.422H114.87H114.72V1.15747V5.24674V5.39674H114.87H135.422H135.572V5.24674V1.15747Z" fill="#007CC1" stroke="#007CC1" stroke-width="0.3"/>
<path d="M131.273 12.3776V12.2276H131.123H114.87H114.72V12.3776V16.4668V16.6168H114.87H131.123H131.273V16.4668V12.3776Z" fill="#007CC1" stroke="#007CC1" stroke-width="0.3"/>
<path d="M135.572 23.9107V23.7607H135.422H114.87H114.72V23.9107V28V28.15H114.87H135.422H135.572V28V23.9107Z" fill="#007CC1" stroke="#007CC1" stroke-width="0.3"/>
<path d="M50.8193 1.24747L50.9993 1.00747H50.6993H45.5091H45.4342L45.3892 1.06736L38.8509 9.76787L32.3127 1.06736L32.2677 1.00747H32.1928H27.0025H26.7045L26.882 1.24682L35.9903 13.5301L25.3093 27.9104L25.1314 28.1499H25.4297H30.5675H30.6427L30.6877 28.0897L38.7988 17.2403L46.962 28.09L47.007 28.1499H47.0819H52.3245H52.6254L52.4443 27.9096L41.6074 13.5299L50.8193 1.24747Z" fill="#007CC1" stroke="#007CC1" stroke-width="0.3"/>
<path d="M159.434 23.7606H145.481V1.15747V1.00747H145.331H141.084H140.934V1.15747V27.9999V28.1499H141.084H159.434H159.584V27.9999V23.9106V23.7606H159.434Z" fill="#007CC1" stroke="#007CC1" stroke-width="0.3"/>
<path d="M67.6329 0.85H67.5361L67.4962 0.938169L55.2808 27.9378L55.185 28.1497H55.4175H59.9787H60.0755L60.1154 28.0615L69.2057 7.96963L78.2961 28.0615L78.336 28.1497H78.4328H82.9414H83.1731L83.0783 27.9383L70.9678 0.938611L70.9281 0.85H70.831H67.6329Z" fill="#007CC1" stroke="#007CC1" stroke-width="0.3"/>
<path d="M106.113 4.77052L106.113 4.77046C103.459 2.2756 99.9073 1.00747 95.63 1.00747H86.8223H86.6723V1.15747V5.24674V5.39674H86.8223H95.3678C98.645 5.39674 101.12 6.22846 102.919 7.92478L102.919 7.92479L102.921 7.92635C104.719 9.57082 105.598 11.7821 105.598 14.5787C105.598 17.3752 104.719 19.5865 102.921 21.231L102.921 21.2311C101.068 22.9293 98.5916 23.7606 95.3678 23.7606H86.8223H86.6723V23.9106V27.9999V28.1499H86.8223H95.63C99.9073 28.1499 103.459 26.8817 106.113 24.3869L106.113 24.3868C108.819 21.8401 110.197 18.5492 110.197 14.5787C110.197 10.6081 108.819 7.31722 106.113 4.77052Z" fill="#007CC1" stroke="#007CC1" stroke-width="0.3"/>
</svg>
